<svg xmlns="http://www.w3.org/2000/svg" width="1400" height="860" viewBox="0 0 1400 860">
  <defs>
    <linearGradient id="bg" x1="0" y1="0" x2="1" y2="1">
      <stop offset="0" stop-color="#eef4f1"/>
      <stop offset=".48" stop-color="#f4e3cf"/>
      <stop offset="1" stop-color="#c7d6e3"/>
    </linearGradient>
    <filter id="shadow" x="-20%" y="-20%" width="140%" height="140%">
      <feDropShadow dx="0" dy="20" stdDeviation="22" flood-color="#263039" flood-opacity=".16"/>
    </filter>
  </defs>
  <rect width="1400" height="860" fill="url(#bg)"/>
  <rect x="0" y="652" width="1400" height="208" fill="#24484d"/>
  <g filter="url(#shadow)">
    <rect x="210" y="164" width="980" height="476" rx="28" fill="#ffffff"/>
    <rect x="210" y="164" width="980" height="70" rx="28" fill="#2d686b"/>
    <circle cx="260" cy="199" r="11" fill="#f1ba57"/>
    <circle cx="300" cy="199" r="11" fill="#d46777"/>
    <circle cx="340" cy="199" r="11" fill="#89a879"/>
    <rect x="280" y="300" width="214" height="164" rx="18" fill="#eff3ef" stroke="#d4dbd5" stroke-width="3"/>
    <rect x="554" y="300" width="214" height="164" rx="18" fill="#fff3e1" stroke="#e7d4b7" stroke-width="3"/>
    <rect x="828" y="300" width="214" height="164" rx="18" fill="#eef3f7" stroke="#d0dce5" stroke-width="3"/>
    <path d="M330 404 L384 350 L438 404" fill="none" stroke="#2d686b" stroke-width="18" stroke-linecap="round" stroke-linejoin="round"/>
    <path d="M620 350 H704 M620 404 H704" stroke="#b4893d" stroke-width="18" stroke-linecap="round"/>
    <path d="M900 376 C935 336 990 352 990 405 C990 442 930 456 898 426" fill="none" stroke="#9b4d5d" stroke-width="18" stroke-linecap="round"/>
    <rect x="280" y="520" width="762" height="14" rx="7" fill="#d8ddd8"/>
    <rect x="280" y="560" width="520" height="14" rx="7" fill="#d8ddd8"/>
  </g>
</svg>
