<svg xmlns="http://www.w3.org/2000/svg" width="1400" height="860" viewBox="0 0 1400 860">
  <defs>
    <linearGradient id="bg" x1="0" y1="0" x2="1" y2="1">
      <stop offset="0" stop-color="#f7f1e6"/>
      <stop offset=".5" stop-color="#e2eef0"/>
      <stop offset="1" stop-color="#d8d3ea"/>
    </linearGradient>
    <filter id="shadow" x="-20%" y="-20%" width="140%" height="140%">
      <feDropShadow dx="0" dy="24" stdDeviation="24" flood-color="#23343d" flood-opacity=".17"/>
    </filter>
  </defs>
  <rect width="1400" height="860" fill="url(#bg)"/>
  <path d="M0 646 C154 596 278 658 438 622 C602 584 670 470 834 492 C984 512 1056 640 1400 574 L1400 860 L0 860 Z" fill="#2b5f64" opacity=".84"/>
  <g filter="url(#shadow)">
    <rect x="198" y="152" width="1004" height="506" rx="28" fill="#fffdf8"/>
    <rect x="198" y="152" width="1004" height="78" rx="28" fill="#263f4a"/>
    <circle cx="260" cy="191" r="12" fill="#e6b85b"/>
    <circle cx="302" cy="191" r="12" fill="#c95e71"/>
    <circle cx="344" cy="191" r="12" fill="#80a36f"/>
    <g fill="none" stroke-linecap="round" stroke-linejoin="round">
      <path d="M322 382 C420 286 512 524 604 388 C682 272 772 284 858 384 C944 484 1014 438 1080 334" stroke="#2c6b70" stroke-width="18"/>
      <path d="M324 510 H1074" stroke="#d7d9d2" stroke-width="10"/>
      <path d="M324 300 H1074" stroke="#d7d9d2" stroke-width="10"/>
      <path d="M428 278 V540" stroke="#d7d9d2" stroke-width="8"/>
      <path d="M620 278 V540" stroke="#d7d9d2" stroke-width="8"/>
      <path d="M812 278 V540" stroke="#d7d9d2" stroke-width="8"/>
      <path d="M1004 278 V540" stroke="#d7d9d2" stroke-width="8"/>
    </g>
    <text x="336" y="604" fill="#9b4d5d" font-family="Georgia, serif" font-size="54" font-weight="700">f(x) = e^x / Σe^x</text>
  </g>
</svg>
