<svg xmlns="http://www.w3.org/2000/svg" width="1400" height="860" viewBox="0 0 1400 860">
  <defs>
    <linearGradient id="bg" x1="0" y1="0" x2="1" y2="1">
      <stop offset="0" stop-color="#f8f2e7"/>
      <stop offset=".56" stop-color="#dfe9e6"/>
      <stop offset="1" stop-color="#c6c0d8"/>
    </linearGradient>
    <filter id="shadow" x="-20%" y="-20%" width="140%" height="140%">
      <feDropShadow dx="0" dy="24" stdDeviation="24" flood-color="#352f39" flood-opacity=".18"/>
    </filter>
  </defs>
  <rect width="1400" height="860" fill="url(#bg)"/>
  <circle cx="1080" cy="205" r="118" fill="#c1944d" opacity=".36"/>
  <path d="M118 690 C242 614 356 658 468 708 C615 774 738 758 884 666 C1018 581 1200 571 1400 642 L1400 860 L118 860 Z" fill="#526750" opacity=".82"/>
  <g filter="url(#shadow)">
    <path d="M408 184 C536 158 624 190 700 258 L700 660 C624 592 532 558 408 586 Z" fill="#fffaf0"/>
    <path d="M700 258 C778 190 866 158 994 184 L994 586 C870 558 778 592 700 660 Z" fill="#ffffff"/>
    <path d="M700 258 L700 660" stroke="#d5d0c6" stroke-width="6"/>
    <g stroke="#b7b7ad" stroke-width="11" stroke-linecap="round">
      <path d="M468 286 H612"/>
      <path d="M468 336 H642"/>
      <path d="M468 386 H604"/>
      <path d="M468 436 H636"/>
      <path d="M790 286 H916"/>
      <path d="M762 336 H932"/>
      <path d="M790 386 H884"/>
      <path d="M762 436 H924"/>
    </g>
    <path d="M822 228 L856 360 L888 250" fill="#b85d6d" opacity=".86"/>
  </g>
</svg>
