<svg xmlns="http://www.w3.org/2000/svg" width="1400" height="860" viewBox="0 0 1400 860">
  <defs>
    <linearGradient id="bg" x1="0" y1="0" x2="1" y2="1">
      <stop offset="0" stop-color="#eff6f2"/>
      <stop offset=".5" stop-color="#f2eddc"/>
      <stop offset="1" stop-color="#d5e0ec"/>
    </linearGradient>
    <filter id="shadow" x="-20%" y="-20%" width="140%" height="140%">
      <feDropShadow dx="0" dy="24" stdDeviation="24" flood-color="#24333a" flood-opacity=".16"/>
    </filter>
  </defs>
  <rect width="1400" height="860" fill="url(#bg)"/>
  <rect x="0" y="612" width="1400" height="248" fill="#e0b86d" opacity=".72"/>
  <g filter="url(#shadow)">
    <rect x="274" y="176" width="848" height="508" rx="26" fill="#fffdf7"/>
    <rect x="274" y="176" width="848" height="94" rx="26" fill="#2c676b"/>
    <rect x="348" y="328" width="92" height="92" rx="18" fill="#e8f0ed" stroke="#cfd9d4" stroke-width="4"/>
    <rect x="348" y="478" width="92" height="92" rx="18" fill="#e8f0ed" stroke="#cfd9d4" stroke-width="4"/>
    <path d="M374 374 L394 394 L426 348" fill="none" stroke="#59724e" stroke-width="13" stroke-linecap="round" stroke-linejoin="round"/>
    <path d="M374 524 L394 544 L426 498" fill="none" stroke="#b85d6d" stroke-width="13" stroke-linecap="round" stroke-linejoin="round"/>
    <g stroke="#c7c9c2" stroke-width="14" stroke-linecap="round">
      <path d="M500 348 H982"/>
      <path d="M500 398 H820"/>
      <path d="M500 498 H930"/>
      <path d="M500 548 H760"/>
    </g>
    <circle cx="1002" cy="224" r="22" fill="#f0bd5a"/>
    <circle cx="932" cy="224" r="22" fill="#d86a7a"/>
  </g>
</svg>
